<svg xmlns="http://www.w3.org/2000/svg" xmlns:xlink="http://www.w3.org/1999/xlink" width="500" zoomAndPan="magnify" viewBox="0 0 375 374.999991" height="500" preserveAspectRatio="xMidYMid meet" version="1.0"><defs><clipPath id="1181becf84"><path d="M 105 43 L 363.855469 43 L 363.855469 343.921875 L 105 343.921875 Z M 105 43 " clip-rule="nonzero"/></clipPath><clipPath id="823043dcad"><path d="M 87 31.171875 L 139 31.171875 L 139 147 L 87 147 Z M 87 31.171875 " clip-rule="nonzero"/></clipPath><clipPath id="270f4cd90f"><path d="M 11.355469 189 L 139 189 L 139 275 L 11.355469 275 Z M 11.355469 189 " clip-rule="nonzero"/></clipPath></defs><g clip-path="url(#1181becf84)"><path fill="#dd4e77" d="M 363.855469 343.839844 L 261.3125 343.839844 L 156.792969 225.976562 L 105.523438 168.160156 L 105.820312 167.820312 L 156.792969 110.339844 L 216.085938 43.476562 L 318.628906 43.476562 L 208.066406 168.160156 Z M 363.855469 343.839844 " fill-opacity="1" fill-rule="nonzero"/></g><path fill="#231f20" d="M 86.796875 152.367188 L 87.179688 152.125 L 86.886719 152.46875 Z M 86.796875 152.367188 " fill-opacity="1" fill-rule="nonzero"/><g clip-path="url(#823043dcad)"><path fill="#cc275e" d="M 138.15625 88.746094 L 87.179688 146.226562 L 87.179688 31.261719 Z M 138.15625 88.746094 " fill-opacity="1" fill-rule="nonzero"/></g><g clip-path="url(#270f4cd90f)"><path fill="#cc275e" d="M 138.15625 246.988281 L 113.890625 274.355469 L 11.355469 274.355469 L 86.886719 189.175781 Z M 138.15625 246.988281 " fill-opacity="1" fill-rule="nonzero"/></g></svg>